# Blender 5.2.0 LTS
# www.blender.org
mtllib Untitled.mtl
o Cube
v -1.000000 -1.000000 0.000000
v -1.000000 3.542404 0.000000
v -1.000000 -1.000000 -1.000000
v -1.000000 3.542404 -1.000000
v 0.000000 -1.000000 0.000000
v 0.000000 3.542404 0.000000
v 0.000000 -1.000000 -1.000000
v 0.000000 3.542404 -1.000000
v -1.000000 2.818953 0.000000
v -1.000000 2.818953 -1.000000
v 0.000000 2.818953 -1.000000
v 0.000000 2.818953 0.000000
v -1.000000 3.791121 2.619114
v -1.000000 4.297913 2.102837
v 0.000000 4.297913 2.102837
v 0.000000 3.791121 2.619114
vn -1.0000 -0.0000 -0.0000
vn -0.0000 -0.0000 -1.0000
vn 1.0000 -0.0000 -0.0000
vn -0.0000 0.9411 -0.3381
vn -0.0000 -1.0000 -0.0000
vn -0.0000 1.0000 -0.0000
vn -0.0000 -0.0000 1.0000
vn -0.0000 0.7136 0.7005
vn -0.0000 -0.9375 0.3480
vt 0.625000 0.000000
vt 0.585184 0.250000
vt 0.585184 0.000000
vt 0.625000 0.250000
vt 0.585184 0.500000
vt 0.625000 0.500000
vt 0.585184 0.750000
vt 0.875000 0.750000
vt 0.625000 0.750000
vt 0.375000 0.500000
vt 0.125000 0.750000
vt 0.125000 0.500000
vt 0.875000 0.500000
vt 0.375000 1.000000
vt 0.375000 0.750000
vt 0.375000 0.250000
vt 0.375000 0.000000
vt 0.585184 1.000000
vt 0.625000 1.000000
s 0
f 2/1/1 10/2/1 9/3/1
f 4/4/2 11/5/2 10/2/2
f 8/6/3 12/7/3 11/5/3
f 2/8/4 15/9/4 6/9/4
f 7/10/5 1/11/5 3/12/5
f 4/13/6 6/9/6 8/6/6
f 12/7/7 1/14/7 5/15/7
f 11/5/3 5/15/3 7/10/3
f 10/2/2 7/10/2 3/16/2
f 9/3/1 3/16/1 1/17/1
f 15/9/8 13/18/8 16/7/8
f 12/7/9 13/18/9 9/18/9
f 9/3/1 14/1/1 2/1/1
f 12/7/3 15/9/3 16/7/3
f 2/1/1 4/4/1 10/2/1
f 4/4/2 8/6/2 11/5/2
f 8/6/3 6/9/3 12/7/3
f 2/8/4 14/8/4 15/9/4
f 7/10/5 5/15/5 1/11/5
f 4/13/6 2/8/6 6/9/6
f 12/7/7 9/18/7 1/14/7
f 11/5/3 12/7/3 5/15/3
f 10/2/2 11/5/2 7/10/2
f 9/3/1 10/2/1 3/16/1
f 15/9/8 14/19/8 13/18/8
f 12/7/9 16/7/9 13/18/9
f 9/3/1 13/3/1 14/1/1
f 12/7/3 6/9/3 15/9/3
